<mxfile host="app.diagrams.net" modified="2024-02-29T10:51:28.785Z" agent="Mozilla/5.0 (Windows NT 10.0; Win64; x64; rv:123.0) Gecko/20100101 Firefox/123.0" etag="sqCIocJLDZCLXqEtDXDk" version="23.0.2" type="device">
  <diagram id="C5RBs43oDa-KdzZeNtuy" name="Page-1">
    <mxGraphModel dx="1877" dy="1727" grid="1" gridSize="10" guides="1" tooltips="1" connect="1" arrows="1" fold="1" page="1" pageScale="1" pageWidth="827" pageHeight="1169" math="0" shadow="0">
      <root>
        <mxCell id="WIyWlLk6GJQsqaUBKTNV-0" />
        <mxCell id="WIyWlLk6GJQsqaUBKTNV-1" parent="WIyWlLk6GJQsqaUBKTNV-0" />
        <mxCell id="WIyWlLk6GJQsqaUBKTNV-6" value="EFETUA" style="rhombus;whiteSpace=wrap;html=1;shadow=0;fontFamily=Helvetica;fontSize=12;align=center;strokeWidth=1;spacing=6;spacingTop=-4;" parent="WIyWlLk6GJQsqaUBKTNV-1" vertex="1">
          <mxGeometry x="245" y="67.5" width="75" height="60" as="geometry" />
        </mxCell>
        <mxCell id="WIyWlLk6GJQsqaUBKTNV-10" value="TEM" style="rhombus;whiteSpace=wrap;html=1;shadow=0;fontFamily=Helvetica;fontSize=12;align=center;strokeWidth=1;spacing=6;spacingTop=-4;" parent="WIyWlLk6GJQsqaUBKTNV-1" vertex="1">
          <mxGeometry x="510" y="72.5" width="70" height="50" as="geometry" />
        </mxCell>
        <mxCell id="gR6EqTMz24J7qAEJ_YhC-0" value="MEDICO" style="rounded=0;whiteSpace=wrap;html=1;" vertex="1" parent="WIyWlLk6GJQsqaUBKTNV-1">
          <mxGeometry x="110" y="77.5" width="90" height="40" as="geometry" />
        </mxCell>
        <mxCell id="gR6EqTMz24J7qAEJ_YhC-1" value="&lt;u&gt;SNS&lt;/u&gt;" style="ellipse;whiteSpace=wrap;html=1;" vertex="1" parent="WIyWlLk6GJQsqaUBKTNV-1">
          <mxGeometry x="115" y="-50" width="80" height="60" as="geometry" />
        </mxCell>
        <mxCell id="gR6EqTMz24J7qAEJ_YhC-2" value="TEM" style="rhombus;whiteSpace=wrap;html=1;shadow=0;fontFamily=Helvetica;fontSize=12;align=center;strokeWidth=1;spacing=6;spacingTop=-4;" vertex="1" parent="WIyWlLk6GJQsqaUBKTNV-1">
          <mxGeometry x="375" y="180" width="70" height="50" as="geometry" />
        </mxCell>
        <mxCell id="gR6EqTMz24J7qAEJ_YhC-3" value="PACIENTE" style="rounded=0;whiteSpace=wrap;html=1;" vertex="1" parent="WIyWlLk6GJQsqaUBKTNV-1">
          <mxGeometry x="610" y="77.5" width="90" height="40" as="geometry" />
        </mxCell>
        <mxCell id="gR6EqTMz24J7qAEJ_YhC-4" value="NOME" style="ellipse;whiteSpace=wrap;html=1;" vertex="1" parent="WIyWlLk6GJQsqaUBKTNV-1">
          <mxGeometry y="70" width="70" height="55" as="geometry" />
        </mxCell>
        <mxCell id="gR6EqTMz24J7qAEJ_YhC-7" value="&lt;u&gt;NUMERO UTENTE&lt;/u&gt;" style="ellipse;whiteSpace=wrap;html=1;" vertex="1" parent="WIyWlLk6GJQsqaUBKTNV-1">
          <mxGeometry x="650" y="-16.25" width="80" height="36.25" as="geometry" />
        </mxCell>
        <mxCell id="gR6EqTMz24J7qAEJ_YhC-8" value="NOME" style="ellipse;whiteSpace=wrap;html=1;" vertex="1" parent="WIyWlLk6GJQsqaUBKTNV-1">
          <mxGeometry x="747" y="-5" width="80" height="42.5" as="geometry" />
        </mxCell>
        <mxCell id="gR6EqTMz24J7qAEJ_YhC-9" value="ENDERECO" style="ellipse;whiteSpace=wrap;html=1;" vertex="1" parent="WIyWlLk6GJQsqaUBKTNV-1">
          <mxGeometry x="560" y="-12.5" width="80" height="32.5" as="geometry" />
        </mxCell>
        <mxCell id="gR6EqTMz24J7qAEJ_YhC-10" value="DATA NASCIMENTO" style="ellipse;whiteSpace=wrap;html=1;" vertex="1" parent="WIyWlLk6GJQsqaUBKTNV-1">
          <mxGeometry x="770" y="77.5" width="100" height="40" as="geometry" />
        </mxCell>
        <mxCell id="gR6EqTMz24J7qAEJ_YhC-11" value="FARMACEUTICA" style="rounded=0;whiteSpace=wrap;html=1;" vertex="1" parent="WIyWlLk6GJQsqaUBKTNV-1">
          <mxGeometry x="650" y="445" width="95" height="30" as="geometry" />
        </mxCell>
        <mxCell id="gR6EqTMz24J7qAEJ_YhC-12" value="PRESCRICAO" style="rounded=0;whiteSpace=wrap;html=1;" vertex="1" parent="WIyWlLk6GJQsqaUBKTNV-1">
          <mxGeometry x="360" y="72.5" width="100" height="50" as="geometry" />
        </mxCell>
        <mxCell id="gR6EqTMz24J7qAEJ_YhC-13" value="&lt;u&gt;NUMERO REGISTO NACIONAL&lt;/u&gt;" style="ellipse;whiteSpace=wrap;html=1;aspect=fixed;" vertex="1" parent="WIyWlLk6GJQsqaUBKTNV-1">
          <mxGeometry x="650" y="320" width="70" height="70" as="geometry" />
        </mxCell>
        <mxCell id="gR6EqTMz24J7qAEJ_YhC-14" style="edgeStyle=orthogonalEdgeStyle;rounded=0;orthogonalLoop=1;jettySize=auto;html=1;exitX=0.5;exitY=1;exitDx=0;exitDy=0;" edge="1" parent="WIyWlLk6GJQsqaUBKTNV-1" source="gR6EqTMz24J7qAEJ_YhC-8" target="gR6EqTMz24J7qAEJ_YhC-8">
          <mxGeometry relative="1" as="geometry" />
        </mxCell>
        <mxCell id="gR6EqTMz24J7qAEJ_YhC-15" value="NOME" style="ellipse;whiteSpace=wrap;html=1;" vertex="1" parent="WIyWlLk6GJQsqaUBKTNV-1">
          <mxGeometry x="40" y="545" width="90" height="40" as="geometry" />
        </mxCell>
        <mxCell id="gR6EqTMz24J7qAEJ_YhC-16" value="TELEFONE" style="ellipse;whiteSpace=wrap;html=1;" vertex="1" parent="WIyWlLk6GJQsqaUBKTNV-1">
          <mxGeometry x="10" y="400" width="80" height="40" as="geometry" />
        </mxCell>
        <mxCell id="gR6EqTMz24J7qAEJ_YhC-17" value="ENDERECO" style="ellipse;whiteSpace=wrap;html=1;" vertex="1" parent="WIyWlLk6GJQsqaUBKTNV-1">
          <mxGeometry x="180" y="545" width="80" height="45" as="geometry" />
        </mxCell>
        <mxCell id="gR6EqTMz24J7qAEJ_YhC-18" value="FARMACIA" style="rounded=0;whiteSpace=wrap;html=1;" vertex="1" parent="WIyWlLk6GJQsqaUBKTNV-1">
          <mxGeometry x="145" y="440" width="100" height="40" as="geometry" />
        </mxCell>
        <mxCell id="gR6EqTMz24J7qAEJ_YhC-19" value="" style="endArrow=none;html=1;rounded=0;entryX=1;entryY=0.5;entryDx=0;entryDy=0;exitX=0;exitY=0.5;exitDx=0;exitDy=0;" edge="1" parent="WIyWlLk6GJQsqaUBKTNV-1" source="gR6EqTMz24J7qAEJ_YhC-0" target="gR6EqTMz24J7qAEJ_YhC-4">
          <mxGeometry width="50" height="50" relative="1" as="geometry">
            <mxPoint x="390" y="250" as="sourcePoint" />
            <mxPoint x="440" y="200" as="targetPoint" />
          </mxGeometry>
        </mxCell>
        <mxCell id="gR6EqTMz24J7qAEJ_YhC-20" value="" style="endArrow=none;html=1;rounded=0;entryX=0.5;entryY=1;entryDx=0;entryDy=0;exitX=0.5;exitY=0;exitDx=0;exitDy=0;" edge="1" parent="WIyWlLk6GJQsqaUBKTNV-1" source="gR6EqTMz24J7qAEJ_YhC-0" target="gR6EqTMz24J7qAEJ_YhC-1">
          <mxGeometry width="50" height="50" relative="1" as="geometry">
            <mxPoint x="150" y="77.5" as="sourcePoint" />
            <mxPoint x="200" y="27.5" as="targetPoint" />
          </mxGeometry>
        </mxCell>
        <mxCell id="gR6EqTMz24J7qAEJ_YhC-21" value="" style="endArrow=none;html=1;rounded=0;entryX=1;entryY=0.5;entryDx=0;entryDy=0;exitX=0;exitY=0.5;exitDx=0;exitDy=0;" edge="1" parent="WIyWlLk6GJQsqaUBKTNV-1" source="WIyWlLk6GJQsqaUBKTNV-6" target="gR6EqTMz24J7qAEJ_YhC-0">
          <mxGeometry width="50" height="50" relative="1" as="geometry">
            <mxPoint x="390" y="250" as="sourcePoint" />
            <mxPoint x="440" y="200" as="targetPoint" />
          </mxGeometry>
        </mxCell>
        <mxCell id="gR6EqTMz24J7qAEJ_YhC-28" value="1" style="edgeLabel;html=1;align=center;verticalAlign=middle;resizable=0;points=[];" vertex="1" connectable="0" parent="gR6EqTMz24J7qAEJ_YhC-21">
          <mxGeometry x="0.1111" y="1" relative="1" as="geometry">
            <mxPoint y="-18" as="offset" />
          </mxGeometry>
        </mxCell>
        <mxCell id="gR6EqTMz24J7qAEJ_YhC-22" value="" style="endArrow=none;html=1;rounded=0;entryX=1;entryY=0.5;entryDx=0;entryDy=0;exitX=0;exitY=0.5;exitDx=0;exitDy=0;" edge="1" parent="WIyWlLk6GJQsqaUBKTNV-1" source="gR6EqTMz24J7qAEJ_YhC-12" target="WIyWlLk6GJQsqaUBKTNV-6">
          <mxGeometry width="50" height="50" relative="1" as="geometry">
            <mxPoint x="390" y="250" as="sourcePoint" />
            <mxPoint x="440" y="200" as="targetPoint" />
          </mxGeometry>
        </mxCell>
        <mxCell id="gR6EqTMz24J7qAEJ_YhC-29" value="N" style="edgeLabel;html=1;align=center;verticalAlign=middle;resizable=0;points=[];" vertex="1" connectable="0" parent="gR6EqTMz24J7qAEJ_YhC-22">
          <mxGeometry x="0.05" y="4" relative="1" as="geometry">
            <mxPoint y="-21" as="offset" />
          </mxGeometry>
        </mxCell>
        <mxCell id="gR6EqTMz24J7qAEJ_YhC-23" value="DATA" style="ellipse;whiteSpace=wrap;html=1;" vertex="1" parent="WIyWlLk6GJQsqaUBKTNV-1">
          <mxGeometry x="430" y="-20" width="80" height="57.5" as="geometry" />
        </mxCell>
        <mxCell id="gR6EqTMz24J7qAEJ_YhC-24" value="" style="endArrow=none;html=1;rounded=0;entryX=0.257;entryY=1.022;entryDx=0;entryDy=0;exitX=0.75;exitY=0;exitDx=0;exitDy=0;entryPerimeter=0;" edge="1" parent="WIyWlLk6GJQsqaUBKTNV-1" source="gR6EqTMz24J7qAEJ_YhC-12" target="gR6EqTMz24J7qAEJ_YhC-23">
          <mxGeometry width="50" height="50" relative="1" as="geometry">
            <mxPoint x="390" y="220" as="sourcePoint" />
            <mxPoint x="440" y="170" as="targetPoint" />
          </mxGeometry>
        </mxCell>
        <mxCell id="gR6EqTMz24J7qAEJ_YhC-25" value="&lt;u&gt;NUMERO UNICO&lt;/u&gt;" style="ellipse;whiteSpace=wrap;html=1;" vertex="1" parent="WIyWlLk6GJQsqaUBKTNV-1">
          <mxGeometry x="320" y="-20" width="80" height="57.5" as="geometry" />
        </mxCell>
        <mxCell id="gR6EqTMz24J7qAEJ_YhC-26" value="" style="endArrow=none;html=1;rounded=0;entryX=0.65;entryY=1.026;entryDx=0;entryDy=0;entryPerimeter=0;exitX=0.25;exitY=0;exitDx=0;exitDy=0;" edge="1" parent="WIyWlLk6GJQsqaUBKTNV-1" source="gR6EqTMz24J7qAEJ_YhC-12" target="gR6EqTMz24J7qAEJ_YhC-25">
          <mxGeometry width="50" height="50" relative="1" as="geometry">
            <mxPoint x="390" y="220" as="sourcePoint" />
            <mxPoint x="440" y="170" as="targetPoint" />
          </mxGeometry>
        </mxCell>
        <mxCell id="gR6EqTMz24J7qAEJ_YhC-31" value="" style="endArrow=none;html=1;rounded=0;entryX=1;entryY=0.5;entryDx=0;entryDy=0;" edge="1" parent="WIyWlLk6GJQsqaUBKTNV-1" target="gR6EqTMz24J7qAEJ_YhC-12">
          <mxGeometry width="50" height="50" relative="1" as="geometry">
            <mxPoint x="510" y="98" as="sourcePoint" />
            <mxPoint x="440" y="170" as="targetPoint" />
          </mxGeometry>
        </mxCell>
        <mxCell id="gR6EqTMz24J7qAEJ_YhC-34" value="N" style="edgeLabel;html=1;align=center;verticalAlign=middle;resizable=0;points=[];" vertex="1" connectable="0" parent="gR6EqTMz24J7qAEJ_YhC-31">
          <mxGeometry x="0.1203" y="-1" relative="1" as="geometry">
            <mxPoint x="-2" y="-7" as="offset" />
          </mxGeometry>
        </mxCell>
        <mxCell id="gR6EqTMz24J7qAEJ_YhC-32" value="" style="endArrow=none;html=1;rounded=0;entryX=1;entryY=0.5;entryDx=0;entryDy=0;exitX=0;exitY=0.5;exitDx=0;exitDy=0;" edge="1" parent="WIyWlLk6GJQsqaUBKTNV-1" source="gR6EqTMz24J7qAEJ_YhC-3" target="WIyWlLk6GJQsqaUBKTNV-10">
          <mxGeometry width="50" height="50" relative="1" as="geometry">
            <mxPoint x="390" y="220" as="sourcePoint" />
            <mxPoint x="440" y="170" as="targetPoint" />
          </mxGeometry>
        </mxCell>
        <mxCell id="gR6EqTMz24J7qAEJ_YhC-35" value="1" style="edgeLabel;html=1;align=center;verticalAlign=middle;resizable=0;points=[];" vertex="1" connectable="0" parent="gR6EqTMz24J7qAEJ_YhC-32">
          <mxGeometry x="0.0667" relative="1" as="geometry">
            <mxPoint x="6" y="-7" as="offset" />
          </mxGeometry>
        </mxCell>
        <mxCell id="gR6EqTMz24J7qAEJ_YhC-33" value="" style="endArrow=none;html=1;rounded=0;exitX=0.144;exitY=0.013;exitDx=0;exitDy=0;exitPerimeter=0;" edge="1" parent="WIyWlLk6GJQsqaUBKTNV-1" source="gR6EqTMz24J7qAEJ_YhC-3" target="gR6EqTMz24J7qAEJ_YhC-9">
          <mxGeometry width="50" height="50" relative="1" as="geometry">
            <mxPoint x="390" y="250" as="sourcePoint" />
            <mxPoint x="440" y="200" as="targetPoint" />
          </mxGeometry>
        </mxCell>
        <mxCell id="gR6EqTMz24J7qAEJ_YhC-36" value="" style="endArrow=none;html=1;rounded=0;entryX=0.5;entryY=1;entryDx=0;entryDy=0;" edge="1" parent="WIyWlLk6GJQsqaUBKTNV-1" target="gR6EqTMz24J7qAEJ_YhC-12">
          <mxGeometry width="50" height="50" relative="1" as="geometry">
            <mxPoint x="410" y="180" as="sourcePoint" />
            <mxPoint x="440" y="200" as="targetPoint" />
          </mxGeometry>
        </mxCell>
        <mxCell id="gR6EqTMz24J7qAEJ_YhC-42" value="M" style="edgeLabel;html=1;align=center;verticalAlign=middle;resizable=0;points=[];" vertex="1" connectable="0" parent="gR6EqTMz24J7qAEJ_YhC-36">
          <mxGeometry x="0.3217" y="1" relative="1" as="geometry">
            <mxPoint x="21" y="8" as="offset" />
          </mxGeometry>
        </mxCell>
        <mxCell id="gR6EqTMz24J7qAEJ_YhC-37" value="" style="endArrow=none;html=1;rounded=0;entryX=0.375;entryY=1.055;entryDx=0;entryDy=0;entryPerimeter=0;" edge="1" parent="WIyWlLk6GJQsqaUBKTNV-1" target="gR6EqTMz24J7qAEJ_YhC-7">
          <mxGeometry width="50" height="50" relative="1" as="geometry">
            <mxPoint x="660" y="77.5" as="sourcePoint" />
            <mxPoint x="710" y="27.5" as="targetPoint" />
          </mxGeometry>
        </mxCell>
        <mxCell id="gR6EqTMz24J7qAEJ_YhC-38" value="" style="endArrow=none;html=1;rounded=0;entryX=0.05;entryY=0.753;entryDx=0;entryDy=0;entryPerimeter=0;" edge="1" parent="WIyWlLk6GJQsqaUBKTNV-1" target="gR6EqTMz24J7qAEJ_YhC-8">
          <mxGeometry width="50" height="50" relative="1" as="geometry">
            <mxPoint x="690" y="77.5" as="sourcePoint" />
            <mxPoint x="740" y="27.5" as="targetPoint" />
          </mxGeometry>
        </mxCell>
        <mxCell id="gR6EqTMz24J7qAEJ_YhC-41" value="" style="endArrow=none;html=1;rounded=0;entryX=0;entryY=0.5;entryDx=0;entryDy=0;" edge="1" parent="WIyWlLk6GJQsqaUBKTNV-1" target="gR6EqTMz24J7qAEJ_YhC-10">
          <mxGeometry width="50" height="50" relative="1" as="geometry">
            <mxPoint x="700" y="100" as="sourcePoint" />
            <mxPoint x="750" y="50" as="targetPoint" />
          </mxGeometry>
        </mxCell>
        <mxCell id="gR6EqTMz24J7qAEJ_YhC-43" value="TEM" style="rhombus;whiteSpace=wrap;html=1;shadow=0;fontFamily=Helvetica;fontSize=12;align=center;strokeWidth=1;spacing=6;spacingTop=-4;" vertex="1" parent="WIyWlLk6GJQsqaUBKTNV-1">
          <mxGeometry x="120" y="180" width="70" height="50" as="geometry" />
        </mxCell>
        <mxCell id="gR6EqTMz24J7qAEJ_YhC-45" value="" style="endArrow=none;html=1;rounded=0;entryX=0.5;entryY=1;entryDx=0;entryDy=0;exitX=0.5;exitY=0;exitDx=0;exitDy=0;" edge="1" parent="WIyWlLk6GJQsqaUBKTNV-1" source="gR6EqTMz24J7qAEJ_YhC-43" target="gR6EqTMz24J7qAEJ_YhC-0">
          <mxGeometry width="50" height="50" relative="1" as="geometry">
            <mxPoint x="150" y="180" as="sourcePoint" />
            <mxPoint x="200" y="130" as="targetPoint" />
          </mxGeometry>
        </mxCell>
        <mxCell id="gR6EqTMz24J7qAEJ_YhC-46" value="N" style="edgeLabel;html=1;align=center;verticalAlign=middle;resizable=0;points=[];" vertex="1" connectable="0" parent="gR6EqTMz24J7qAEJ_YhC-45">
          <mxGeometry x="0.152" y="2" relative="1" as="geometry">
            <mxPoint x="22" as="offset" />
          </mxGeometry>
        </mxCell>
        <mxCell id="gR6EqTMz24J7qAEJ_YhC-47" value="DESIGNACAO" style="ellipse;whiteSpace=wrap;html=1;" vertex="1" parent="WIyWlLk6GJQsqaUBKTNV-1">
          <mxGeometry y="210" width="90" height="40" as="geometry" />
        </mxCell>
        <mxCell id="gR6EqTMz24J7qAEJ_YhC-48" value="CODIGO" style="ellipse;whiteSpace=wrap;html=1;" vertex="1" parent="WIyWlLk6GJQsqaUBKTNV-1">
          <mxGeometry x="-5" y="310" width="75" height="30" as="geometry" />
        </mxCell>
        <mxCell id="gR6EqTMz24J7qAEJ_YhC-50" value="ESPECIALIDADE" style="rounded=0;whiteSpace=wrap;html=1;" vertex="1" parent="WIyWlLk6GJQsqaUBKTNV-1">
          <mxGeometry x="107.5" y="270" width="95" height="40" as="geometry" />
        </mxCell>
        <mxCell id="gR6EqTMz24J7qAEJ_YhC-51" value="" style="endArrow=none;html=1;rounded=0;entryX=0.5;entryY=1;entryDx=0;entryDy=0;exitX=0.5;exitY=0;exitDx=0;exitDy=0;" edge="1" parent="WIyWlLk6GJQsqaUBKTNV-1" source="gR6EqTMz24J7qAEJ_YhC-50" target="gR6EqTMz24J7qAEJ_YhC-43">
          <mxGeometry width="50" height="50" relative="1" as="geometry">
            <mxPoint x="150" y="270" as="sourcePoint" />
            <mxPoint x="200" y="220" as="targetPoint" />
          </mxGeometry>
        </mxCell>
        <mxCell id="gR6EqTMz24J7qAEJ_YhC-52" value="" style="endArrow=none;html=1;rounded=0;entryX=0.767;entryY=1;entryDx=0;entryDy=0;entryPerimeter=0;exitX=0;exitY=0;exitDx=0;exitDy=0;" edge="1" parent="WIyWlLk6GJQsqaUBKTNV-1" source="gR6EqTMz24J7qAEJ_YhC-50" target="gR6EqTMz24J7qAEJ_YhC-47">
          <mxGeometry width="50" height="50" relative="1" as="geometry">
            <mxPoint x="260" y="340" as="sourcePoint" />
            <mxPoint x="310" y="290" as="targetPoint" />
          </mxGeometry>
        </mxCell>
        <mxCell id="gR6EqTMz24J7qAEJ_YhC-53" value="" style="endArrow=none;html=1;rounded=0;entryX=0;entryY=1;entryDx=0;entryDy=0;" edge="1" parent="WIyWlLk6GJQsqaUBKTNV-1" target="gR6EqTMz24J7qAEJ_YhC-50">
          <mxGeometry width="50" height="50" relative="1" as="geometry">
            <mxPoint x="65" y="320" as="sourcePoint" />
            <mxPoint x="115" y="270" as="targetPoint" />
          </mxGeometry>
        </mxCell>
        <mxCell id="gR6EqTMz24J7qAEJ_YhC-55" value="PROCESSA" style="rhombus;whiteSpace=wrap;html=1;shadow=0;fontFamily=Helvetica;fontSize=12;align=center;strokeWidth=1;spacing=6;spacingTop=-4;rotation=-60;" vertex="1" parent="WIyWlLk6GJQsqaUBKTNV-1">
          <mxGeometry x="245" y="330" width="80" height="60" as="geometry" />
        </mxCell>
        <mxCell id="gR6EqTMz24J7qAEJ_YhC-57" value="" style="endArrow=none;html=1;rounded=0;entryX=0;entryY=1;entryDx=0;entryDy=0;exitX=1;exitY=0.5;exitDx=0;exitDy=0;" edge="1" parent="WIyWlLk6GJQsqaUBKTNV-1" source="gR6EqTMz24J7qAEJ_YhC-55" target="gR6EqTMz24J7qAEJ_YhC-12">
          <mxGeometry width="50" height="50" relative="1" as="geometry">
            <mxPoint x="260" y="300" as="sourcePoint" />
            <mxPoint x="310" y="250" as="targetPoint" />
          </mxGeometry>
        </mxCell>
        <mxCell id="gR6EqTMz24J7qAEJ_YhC-58" value="" style="endArrow=none;html=1;rounded=0;entryX=0;entryY=0.5;entryDx=0;entryDy=0;" edge="1" parent="WIyWlLk6GJQsqaUBKTNV-1" target="gR6EqTMz24J7qAEJ_YhC-55">
          <mxGeometry width="50" height="50" relative="1" as="geometry">
            <mxPoint x="240" y="440" as="sourcePoint" />
            <mxPoint x="290" y="390" as="targetPoint" />
          </mxGeometry>
        </mxCell>
        <mxCell id="gR6EqTMz24J7qAEJ_YhC-59" value="" style="endArrow=none;html=1;rounded=0;entryX=1.038;entryY=0.675;entryDx=0;entryDy=0;entryPerimeter=0;" edge="1" parent="WIyWlLk6GJQsqaUBKTNV-1" target="gR6EqTMz24J7qAEJ_YhC-16">
          <mxGeometry width="50" height="50" relative="1" as="geometry">
            <mxPoint x="145" y="440" as="sourcePoint" />
            <mxPoint x="195" y="390" as="targetPoint" />
          </mxGeometry>
        </mxCell>
        <mxCell id="gR6EqTMz24J7qAEJ_YhC-61" value="&lt;u&gt;NIF&lt;/u&gt;" style="ellipse;whiteSpace=wrap;html=1;" vertex="1" parent="WIyWlLk6GJQsqaUBKTNV-1">
          <mxGeometry y="500" width="80" height="40" as="geometry" />
        </mxCell>
        <mxCell id="gR6EqTMz24J7qAEJ_YhC-63" value="" style="endArrow=none;html=1;rounded=0;entryX=0;entryY=1;entryDx=0;entryDy=0;" edge="1" parent="WIyWlLk6GJQsqaUBKTNV-1" target="gR6EqTMz24J7qAEJ_YhC-18">
          <mxGeometry width="50" height="50" relative="1" as="geometry">
            <mxPoint x="80" y="510" as="sourcePoint" />
            <mxPoint x="130" y="460" as="targetPoint" />
          </mxGeometry>
        </mxCell>
        <mxCell id="gR6EqTMz24J7qAEJ_YhC-64" value="" style="endArrow=none;html=1;rounded=0;entryX=0.25;entryY=1;entryDx=0;entryDy=0;" edge="1" parent="WIyWlLk6GJQsqaUBKTNV-1" target="gR6EqTMz24J7qAEJ_YhC-18">
          <mxGeometry width="50" height="50" relative="1" as="geometry">
            <mxPoint x="120" y="550" as="sourcePoint" />
            <mxPoint x="170" y="500" as="targetPoint" />
          </mxGeometry>
        </mxCell>
        <mxCell id="gR6EqTMz24J7qAEJ_YhC-65" value="" style="endArrow=none;html=1;rounded=0;entryX=0.75;entryY=1;entryDx=0;entryDy=0;" edge="1" parent="WIyWlLk6GJQsqaUBKTNV-1" target="gR6EqTMz24J7qAEJ_YhC-18">
          <mxGeometry width="50" height="50" relative="1" as="geometry">
            <mxPoint x="220" y="545" as="sourcePoint" />
            <mxPoint x="270" y="495" as="targetPoint" />
          </mxGeometry>
        </mxCell>
        <mxCell id="gR6EqTMz24J7qAEJ_YhC-66" value="DATA" style="ellipse;whiteSpace=wrap;html=1;" vertex="1" parent="WIyWlLk6GJQsqaUBKTNV-1">
          <mxGeometry x="317.5" y="290" width="65" height="20" as="geometry" />
        </mxCell>
        <mxCell id="gR6EqTMz24J7qAEJ_YhC-67" value="" style="endArrow=none;html=1;rounded=0;entryX=0.5;entryY=1;entryDx=0;entryDy=0;exitX=0.262;exitY=1.15;exitDx=0;exitDy=0;exitPerimeter=0;" edge="1" parent="WIyWlLk6GJQsqaUBKTNV-1" source="gR6EqTMz24J7qAEJ_YhC-66" target="gR6EqTMz24J7qAEJ_YhC-55">
          <mxGeometry width="50" height="50" relative="1" as="geometry">
            <mxPoint x="330" y="400" as="sourcePoint" />
            <mxPoint x="380" y="350" as="targetPoint" />
          </mxGeometry>
        </mxCell>
        <mxCell id="gR6EqTMz24J7qAEJ_YhC-68" value="VENDE" style="rhombus;whiteSpace=wrap;html=1;shadow=0;fontFamily=Helvetica;fontSize=12;align=center;strokeWidth=1;spacing=6;spacingTop=-4;rotation=0;" vertex="1" parent="WIyWlLk6GJQsqaUBKTNV-1">
          <mxGeometry x="290" y="430" width="50" height="60" as="geometry" />
        </mxCell>
        <mxCell id="gR6EqTMz24J7qAEJ_YhC-69" value="" style="endArrow=none;html=1;rounded=0;entryX=0;entryY=0.5;entryDx=0;entryDy=0;" edge="1" parent="WIyWlLk6GJQsqaUBKTNV-1" target="gR6EqTMz24J7qAEJ_YhC-68">
          <mxGeometry width="50" height="50" relative="1" as="geometry">
            <mxPoint x="245" y="460" as="sourcePoint" />
            <mxPoint x="310" y="460" as="targetPoint" />
          </mxGeometry>
        </mxCell>
        <mxCell id="gR6EqTMz24J7qAEJ_YhC-70" value="M" style="edgeLabel;html=1;align=center;verticalAlign=middle;resizable=0;points=[];" vertex="1" connectable="0" parent="gR6EqTMz24J7qAEJ_YhC-69">
          <mxGeometry x="0.0769" y="-1" relative="1" as="geometry">
            <mxPoint x="-10" y="-16" as="offset" />
          </mxGeometry>
        </mxCell>
        <mxCell id="gR6EqTMz24J7qAEJ_YhC-72" value="FARMACO" style="rounded=0;whiteSpace=wrap;html=1;" vertex="1" parent="WIyWlLk6GJQsqaUBKTNV-1">
          <mxGeometry x="375" y="445" width="100" height="30" as="geometry" />
        </mxCell>
        <mxCell id="gR6EqTMz24J7qAEJ_YhC-73" value="" style="endArrow=none;html=1;rounded=0;entryX=0.5;entryY=1;entryDx=0;entryDy=0;" edge="1" parent="WIyWlLk6GJQsqaUBKTNV-1" target="gR6EqTMz24J7qAEJ_YhC-2">
          <mxGeometry width="50" height="50" relative="1" as="geometry">
            <mxPoint x="414" y="445" as="sourcePoint" />
            <mxPoint x="464" y="395" as="targetPoint" />
          </mxGeometry>
        </mxCell>
        <mxCell id="gR6EqTMz24J7qAEJ_YhC-74" value="" style="endArrow=none;html=1;rounded=0;entryX=0;entryY=0.5;entryDx=0;entryDy=0;exitX=1;exitY=0.5;exitDx=0;exitDy=0;" edge="1" parent="WIyWlLk6GJQsqaUBKTNV-1" source="gR6EqTMz24J7qAEJ_YhC-68" target="gR6EqTMz24J7qAEJ_YhC-72">
          <mxGeometry width="50" height="50" relative="1" as="geometry">
            <mxPoint x="340" y="470" as="sourcePoint" />
            <mxPoint x="390" y="420" as="targetPoint" />
          </mxGeometry>
        </mxCell>
        <mxCell id="gR6EqTMz24J7qAEJ_YhC-75" value="N" style="edgeLabel;html=1;align=center;verticalAlign=middle;resizable=0;points=[];" vertex="1" connectable="0" parent="gR6EqTMz24J7qAEJ_YhC-74">
          <mxGeometry x="-0.4286" y="2" relative="1" as="geometry">
            <mxPoint y="-8" as="offset" />
          </mxGeometry>
        </mxCell>
        <mxCell id="gR6EqTMz24J7qAEJ_YhC-76" value="FORMULA" style="ellipse;whiteSpace=wrap;html=1;" vertex="1" parent="WIyWlLk6GJQsqaUBKTNV-1">
          <mxGeometry x="340" y="542.5" width="70" height="27.5" as="geometry" />
        </mxCell>
        <mxCell id="gR6EqTMz24J7qAEJ_YhC-79" value="" style="endArrow=none;html=1;rounded=0;entryX=0.18;entryY=1.1;entryDx=0;entryDy=0;entryPerimeter=0;exitX=0.5;exitY=0;exitDx=0;exitDy=0;" edge="1" parent="WIyWlLk6GJQsqaUBKTNV-1" source="gR6EqTMz24J7qAEJ_YhC-76" target="gR6EqTMz24J7qAEJ_YhC-72">
          <mxGeometry width="50" height="50" relative="1" as="geometry">
            <mxPoint x="410" y="545" as="sourcePoint" />
            <mxPoint x="460" y="495" as="targetPoint" />
          </mxGeometry>
        </mxCell>
        <mxCell id="gR6EqTMz24J7qAEJ_YhC-80" value="NOME COMERCIAL" style="ellipse;whiteSpace=wrap;html=1;" vertex="1" parent="WIyWlLk6GJQsqaUBKTNV-1">
          <mxGeometry x="420" y="542.5" width="80" height="35" as="geometry" />
        </mxCell>
        <mxCell id="gR6EqTMz24J7qAEJ_YhC-81" value="" style="endArrow=none;html=1;rounded=0;entryX=0.65;entryY=1.167;entryDx=0;entryDy=0;entryPerimeter=0;" edge="1" parent="WIyWlLk6GJQsqaUBKTNV-1" target="gR6EqTMz24J7qAEJ_YhC-72">
          <mxGeometry width="50" height="50" relative="1" as="geometry">
            <mxPoint x="450" y="540" as="sourcePoint" />
            <mxPoint x="500" y="490" as="targetPoint" />
          </mxGeometry>
        </mxCell>
        <mxCell id="gR6EqTMz24J7qAEJ_YhC-82" value="PRODUZ" style="rhombus;whiteSpace=wrap;html=1;shadow=0;fontFamily=Helvetica;fontSize=12;align=center;strokeWidth=1;spacing=6;spacingTop=-4;rotation=0;" vertex="1" parent="WIyWlLk6GJQsqaUBKTNV-1">
          <mxGeometry x="530" y="430" width="70" height="60" as="geometry" />
        </mxCell>
        <mxCell id="gR6EqTMz24J7qAEJ_YhC-83" value="" style="endArrow=none;html=1;rounded=0;entryX=0;entryY=0.5;entryDx=0;entryDy=0;" edge="1" parent="WIyWlLk6GJQsqaUBKTNV-1" target="gR6EqTMz24J7qAEJ_YhC-82">
          <mxGeometry width="50" height="50" relative="1" as="geometry">
            <mxPoint x="475" y="460" as="sourcePoint" />
            <mxPoint x="525" y="410" as="targetPoint" />
          </mxGeometry>
        </mxCell>
        <mxCell id="gR6EqTMz24J7qAEJ_YhC-84" value="N" style="edgeLabel;html=1;align=center;verticalAlign=middle;resizable=0;points=[];" vertex="1" connectable="0" parent="gR6EqTMz24J7qAEJ_YhC-83">
          <mxGeometry x="0.2364" y="2" relative="1" as="geometry">
            <mxPoint x="-9" y="-13" as="offset" />
          </mxGeometry>
        </mxCell>
        <mxCell id="gR6EqTMz24J7qAEJ_YhC-85" value="" style="endArrow=none;html=1;rounded=0;entryX=0;entryY=0.5;entryDx=0;entryDy=0;" edge="1" parent="WIyWlLk6GJQsqaUBKTNV-1" target="gR6EqTMz24J7qAEJ_YhC-11">
          <mxGeometry width="50" height="50" relative="1" as="geometry">
            <mxPoint x="600" y="460" as="sourcePoint" />
            <mxPoint x="650" y="410" as="targetPoint" />
          </mxGeometry>
        </mxCell>
        <mxCell id="gR6EqTMz24J7qAEJ_YhC-86" value="" style="endArrow=none;html=1;rounded=0;entryX=0.343;entryY=1;entryDx=0;entryDy=0;entryPerimeter=0;" edge="1" parent="WIyWlLk6GJQsqaUBKTNV-1" target="gR6EqTMz24J7qAEJ_YhC-13">
          <mxGeometry width="50" height="50" relative="1" as="geometry">
            <mxPoint x="665" y="445" as="sourcePoint" />
            <mxPoint x="715" y="395" as="targetPoint" />
          </mxGeometry>
        </mxCell>
        <mxCell id="gR6EqTMz24J7qAEJ_YhC-87" value="NOME UNICO" style="ellipse;whiteSpace=wrap;html=1;" vertex="1" parent="WIyWlLk6GJQsqaUBKTNV-1">
          <mxGeometry x="445" y="365" width="80" height="35" as="geometry" />
        </mxCell>
        <mxCell id="gR6EqTMz24J7qAEJ_YhC-88" value="" style="endArrow=none;html=1;rounded=0;entryX=0.275;entryY=0.971;entryDx=0;entryDy=0;entryPerimeter=0;" edge="1" parent="WIyWlLk6GJQsqaUBKTNV-1" target="gR6EqTMz24J7qAEJ_YhC-87">
          <mxGeometry width="50" height="50" relative="1" as="geometry">
            <mxPoint x="435" y="445" as="sourcePoint" />
            <mxPoint x="485" y="395" as="targetPoint" />
          </mxGeometry>
        </mxCell>
        <mxCell id="gR6EqTMz24J7qAEJ_YhC-89" value="TELEFONE" style="ellipse;whiteSpace=wrap;html=1;" vertex="1" parent="WIyWlLk6GJQsqaUBKTNV-1">
          <mxGeometry x="760" y="340" width="80" height="40" as="geometry" />
        </mxCell>
        <mxCell id="gR6EqTMz24J7qAEJ_YhC-90" value="" style="endArrow=none;html=1;rounded=0;entryX=0;entryY=1;entryDx=0;entryDy=0;exitX=0.5;exitY=0;exitDx=0;exitDy=0;" edge="1" parent="WIyWlLk6GJQsqaUBKTNV-1" source="gR6EqTMz24J7qAEJ_YhC-11" target="gR6EqTMz24J7qAEJ_YhC-89">
          <mxGeometry width="50" height="50" relative="1" as="geometry">
            <mxPoint x="710" y="440" as="sourcePoint" />
            <mxPoint x="750" y="400" as="targetPoint" />
          </mxGeometry>
        </mxCell>
        <mxCell id="gR6EqTMz24J7qAEJ_YhC-91" value="NOME" style="ellipse;whiteSpace=wrap;html=1;" vertex="1" parent="WIyWlLk6GJQsqaUBKTNV-1">
          <mxGeometry x="730" y="530" width="90" height="40" as="geometry" />
        </mxCell>
        <mxCell id="gR6EqTMz24J7qAEJ_YhC-93" value="ENDERECO" style="ellipse;whiteSpace=wrap;html=1;" vertex="1" parent="WIyWlLk6GJQsqaUBKTNV-1">
          <mxGeometry x="600" y="530" width="80" height="45" as="geometry" />
        </mxCell>
        <mxCell id="gR6EqTMz24J7qAEJ_YhC-94" value="" style="endArrow=none;html=1;rounded=0;entryX=0.926;entryY=1;entryDx=0;entryDy=0;entryPerimeter=0;" edge="1" parent="WIyWlLk6GJQsqaUBKTNV-1" target="gR6EqTMz24J7qAEJ_YhC-11">
          <mxGeometry width="50" height="50" relative="1" as="geometry">
            <mxPoint x="762" y="530" as="sourcePoint" />
            <mxPoint x="812" y="480" as="targetPoint" />
          </mxGeometry>
        </mxCell>
        <mxCell id="gR6EqTMz24J7qAEJ_YhC-95" value="" style="endArrow=none;html=1;rounded=0;entryX=0.25;entryY=1;entryDx=0;entryDy=0;" edge="1" parent="WIyWlLk6GJQsqaUBKTNV-1" target="gR6EqTMz24J7qAEJ_YhC-11">
          <mxGeometry width="50" height="50" relative="1" as="geometry">
            <mxPoint x="650" y="530" as="sourcePoint" />
            <mxPoint x="700" y="480" as="targetPoint" />
          </mxGeometry>
        </mxCell>
      </root>
    </mxGraphModel>
  </diagram>
</mxfile>
